<?xml version="1.0" standalone="no"?>
<!DOCTYPE svg PUBLIC "-//W3C//DTD SVG 20010904//EN"
 "http://www.w3.org/TR/2001/REC-SVG-20010904/DTD/svg10.dtd">
<svg version="1.0" xmlns="http://www.w3.org/2000/svg"
 width="2048.000000pt" height="2048.000000pt" viewBox="0 0 2048.000000 2048.000000"
 preserveAspectRatio="xMidYMid meet">

<g transform="translate(0.000000,2048.000000) scale(0.100000,-0.100000)"
fill="#000000" stroke="none">
<path d="M10025 16143 c-233 -10 -634 -69 -855 -127 -734 -190 -1357 -525
-1910 -1024 -138 -125 -367 -367 -489 -517 -477 -587 -810 -1313 -931 -2026
-53 -318 -63 -456 -57 -829 5 -351 21 -513 76 -790 161 -801 540 -1544 1098
-2155 166 -181 233 -240 233 -205 0 6 32 83 71 173 39 89 73 167 75 173 3 6
-37 56 -88 110 -654 693 -1045 1613 -1087 2560 -27 596 64 1145 280 1690 380
961 1124 1756 2058 2200 307 146 687 268 1036 333 740 137 1514 53 2240 -243
465 -190 953 -517 1319 -881 706 -703 1146 -1651 1202 -2589 4 -71 11 -119 18
-121 6 -2 90 -28 186 -58 l175 -55 3 81 c7 170 -34 527 -89 780 -175 801 -586
1562 -1164 2156 -607 624 -1303 1029 -2130 1240 -389 99 -835 143 -1270 124z"/>
<path d="M9060 14985 c-155 -35 -302 -150 -368 -287 -68 -139 -79 -319 -29
-467 l23 -70 -109 -108 c-268 -266 -436 -564 -527 -933 -41 -169 -54 -312 -47
-519 7 -206 26 -338 101 -711 81 -404 107 -566 125 -790 44 -539 6 -1018 -125
-1590 -102 -440 -315 -1037 -564 -1580 -135 -293 -135 -296 -12 -89 103 171
229 351 350 499 573 699 1299 1253 2237 1706 1239 598 2461 941 3720 1043 156
13 525 31 650 32 l90 0 -85 25 c-198 59 -580 214 -814 331 -435 218 -865 523
-1182 838 -264 263 -440 502 -769 1045 -190 313 -282 446 -423 610 -253 294
-563 495 -904 585 -178 47 -271 58 -479 59 l-195 1 -40 69 c-47 84 -136 183
-204 226 -115 74 -288 105 -420 75z m244 -258 c57 -27 166 -125 166 -151 0 -8
-24 -18 -57 -25 -125 -28 -302 -104 -443 -190 -36 -21 -68 -37 -72 -35 -18 12
-29 114 -18 176 37 209 232 313 424 225z m1000 -366 c152 -39 239 -72 351
-132 337 -180 575 -434 862 -919 346 -584 499 -798 779 -1089 276 -287 479
-441 848 -645 l58 -33 -108 -12 c-667 -74 -1509 -287 -2213 -560 -57 -22 -100
-36 -95 -32 20 19 303 166 446 233 207 95 512 215 721 284 170 55 588 165 680
179 26 4 47 10 47 14 -1 3 -38 31 -83 61 -245 164 -511 429 -734 730 -121 164
-197 282 -383 595 -78 132 -167 281 -198 330 -299 480 -616 751 -1048 894
-182 61 -324 83 -541 85 -100 0 -176 4 -168 8 11 7 152 31 245 42 19 2 121 3
225 1 175 -2 200 -5 309 -34z"/>
<path d="M14258 10390 c-87 -3 -159 -8 -161 -11 -2 -2 -28 -69 -58 -149 -95
-253 -296 -627 -462 -860 -424 -593 -916 -1024 -1533 -1342 -377 -194 -821
-334 -1249 -392 -441 -61 -939 -45 -1370 44 -289 59 -516 133 -863 281 -31 13
-56 18 -61 13 -15 -17 -191 -305 -191 -313 0 -17 399 -175 590 -235 453 -140
787 -195 1248 -203 296 -6 455 3 703 37 763 106 1509 429 2124 920 680 544
1205 1283 1472 2073 23 71 43 133 43 138 0 5 -17 8 -37 7 -21 -1 -109 -4 -195
-8z"/>
<path d="M10733 10066 c-820 -331 -1492 -689 -1953 -1039 -141 -108 -300 -237
-300 -244 0 -2 53 32 118 75 151 102 390 234 624 346 l186 88 88 -76 c63 -54
118 -91 189 -125 119 -58 190 -78 319 -90 277 -27 525 60 714 250 167 168 257
386 269 650 6 124 -2 259 -15 259 -4 -1 -112 -43 -239 -94z m-996 -763 c61
-46 155 -89 241 -109 67 -16 251 -16 297 0 13 5 12 2 -5 -8 -14 -9 -56 -25
-94 -37 -95 -30 -276 -23 -383 14 -100 34 -216 107 -199 124 10 10 80 51 88
52 4 1 29 -15 55 -36z"/>
<path d="M6780 6215 l0 -125 100 0 100 0 0 125 0 125 -100 0 -100 0 0 -125z"/>
<path d="M11360 6215 l0 -125 100 0 100 0 0 125 0 125 -100 0 -100 0 0 -125z"/>
<path d="M5925 5890 c-154 -32 -244 -100 -321 -243 l-34 -62 0 143 0 142 -100
0 -100 0 0 -635 0 -635 100 0 100 0 1 143 c1 78 2 232 3 342 2 223 10 268 73
387 43 83 108 149 178 183 73 36 186 52 261 36 41 -8 60 -8 64 0 8 12 21 181
15 187 -19 19 -169 26 -240 12z"/>
<path d="M8175 5886 c-115 -29 -191 -81 -237 -164 l-33 -57 -3 103 -3 102 -94
0 -95 0 0 -635 0 -635 100 0 100 0 0 383 c0 413 3 445 56 554 14 29 47 72 75
97 67 61 129 81 249 80 146 0 212 -27 277 -112 64 -84 66 -101 71 -574 l4
-428 99 0 99 0 0 418 c-1 466 -6 527 -61 638 -38 77 -107 152 -168 184 -108
55 -313 77 -436 46z"/>
<path d="M9868 5885 c-92 -23 -177 -72 -243 -139 -114 -117 -166 -273 -166
-500 0 -253 57 -415 188 -538 102 -94 222 -133 393 -125 163 7 264 51 337 147
l35 45 -4 -165 c-6 -188 -23 -252 -85 -321 -73 -81 -222 -121 -375 -100 -126
17 -210 65 -255 146 -9 16 -16 15 -97 -11 -99 -32 -99 -32 -39 -122 58 -85
133 -135 254 -168 88 -24 317 -24 412 -1 176 44 287 145 349 317 l23 65 5 684
c3 376 3 704 1 728 l-3 43 -89 0 -89 0 0 -80 c0 -44 -3 -80 -7 -79 -5 0 -22
19 -38 42 -38 52 -110 102 -178 123 -73 22 -257 27 -329 9z m292 -176 c63 -13
136 -62 172 -114 15 -22 37 -71 50 -110 20 -62 23 -89 23 -245 0 -156 -3 -183
-23 -245 -45 -138 -129 -213 -265 -236 -162 -27 -297 23 -375 140 -61 91 -76
160 -77 336 0 128 3 160 22 221 40 127 113 210 215 245 61 21 180 25 258 8z"/>
<path d="M12765 5886 c-113 -27 -185 -78 -239 -169 -41 -69 -46 -62 -46 64 l0
89 -95 0 -95 0 0 -635 0 -635 94 0 93 0 7 378 c4 207 12 397 18 422 17 73 63
164 104 209 99 110 302 142 451 70 70 -34 103 -71 136 -151 21 -51 22 -68 25
-490 l3 -438 99 0 100 0 0 428 c0 468 -4 512 -58 626 -57 121 -156 198 -293
231 -76 18 -234 18 -304 1z"/>
<path d="M14440 5884 c-197 -52 -320 -187 -381 -419 -30 -115 -30 -326 0 -449
56 -233 203 -387 409 -426 89 -18 253 -8 321 18 71 28 125 66 162 116 l31 41
-5 -165 c-5 -195 -20 -249 -89 -317 -67 -66 -123 -86 -256 -91 -178 -7 -298
37 -339 123 -9 19 -21 35 -26 35 -18 0 -177 -53 -177 -59 0 -22 68 -116 114
-159 95 -86 255 -129 442 -119 281 16 443 130 511 362 16 54 18 130 21 780 l3
720 -96 -3 -95 -3 0 -77 0 -76 -52 56 c-58 62 -108 90 -195 113 -72 19 -230
18 -303 -1z m351 -196 c96 -44 146 -112 175 -235 21 -90 15 -392 -9 -468 -35
-109 -114 -190 -212 -217 -64 -17 -192 -14 -258 7 -156 49 -247 221 -247 465
0 254 86 410 256 464 76 24 225 16 295 -16z"/>
<path d="M6780 5235 l0 -635 100 0 100 0 0 508 c0 279 -3 564 -7 635 l-6 127
-94 0 -93 0 0 -635z"/>
<path d="M11360 5235 l0 -635 100 0 100 0 -2 633 -3 632 -97 3 -98 3 0 -636z"/>
</g>
</svg>
